<svg id="Layer_1" data-name="Layer 1" xmlns="http://www.w3.org/2000/svg" xmlns:xlink="http://www.w3.org/1999/xlink" viewBox="0 0 249.96 19.56"><defs><style>.cls-1{fill:url(#linear-gradient);}.cls-2{fill:url(#linear-gradient-2);}.cls-3{fill:url(#linear-gradient-3);}.cls-4{fill:url(#linear-gradient-4);}.cls-5{fill:url(#linear-gradient-5);}</style><linearGradient id="linear-gradient" x1="-796.89" y1="673.57" x2="-795.89" y2="673.57" gradientTransform="matrix(199.39, 7.91, 92.98, -16.97, 96289.23, 17876.19)" gradientUnits="userSpaceOnUse"><stop offset="0" stop-color="#968abf"/><stop offset="1" stop-color="#e4a8aa"/></linearGradient><linearGradient id="linear-gradient-2" x1="-1371.15" y1="46.59" x2="-1370.95" y2="46.59" gradientTransform="matrix(28.86, 38.04, -13.46, 81.57, 40218.87, 48502)" xlink:href="#linear-gradient"/><linearGradient id="linear-gradient-3" x1="-1393.79" y1="61.63" x2="-1393.59" y2="61.63" gradientTransform="matrix(78.01, 27.46, -36.38, 58.88, 110982.14, 34787.78)" xlink:href="#linear-gradient"/><linearGradient id="linear-gradient-4" x1="-1386.53" y1="57.45" x2="-1386.33" y2="57.45" gradientTransform="matrix(51.95, 28.66, -24.23, 61.46, 73431.39, 36354.37)" xlink:href="#linear-gradient"/><linearGradient id="linear-gradient-5" x1="-1394.95" y1="59.27" x2="-1394.76" y2="59.27" gradientTransform="matrix(77.93, 33.48, -36.34, 71.8, 110874.72, 42590.92)" xlink:href="#linear-gradient"/></defs><g id="afc2c477-1e64-4d20-9ea6-ad5a0ddba376"><path class="cls-1" d="M43.75,148.1h1.54a3.26,3.26,0,0,0,2.4-.79h0a2.79,2.79,0,0,0,.76-2.05h0a2.39,2.39,0,0,0-.69-1.84h0a3.23,3.23,0,0,0-2.26-.66H43.79c0,.87,0,1.73,0,2.6h0v2.74Zm6.36,6.07,1.7.2v.81h0a3.43,3.43,0,0,1-.65.16h0a6.82,6.82,0,0,1-.82,0h0a3.49,3.49,0,0,1-1.53-.27h0a1.47,1.47,0,0,1-.71-1h0l-.8-3.19h0a4,4,0,0,0-.34-1h0a1.68,1.68,0,0,0-.54-.58h0a1.78,1.78,0,0,0-.76-.29h0a7.78,7.78,0,0,0-1-.06h-.87v2.61h0c0,.84,0,1.68,0,2.51h0l1.86.23v.81H40v-.81l1.83-.23h0c0-.83,0-1.68,0-2.54h0V149h0v-1h0v-2.59h0c0-.85,0-1.71,0-2.58h0L40,142.65v-.81h5.59a6.06,6.06,0,0,1,3.56.9h0a2.93,2.93,0,0,1,1.26,2.52h0a3.68,3.68,0,0,1-.19,1.2h0a2.88,2.88,0,0,1-.58,1h0a3.42,3.42,0,0,1-1,.79h0a4.73,4.73,0,0,1-1.46.48h0a2.63,2.63,0,0,1,1.25.8h0a4.54,4.54,0,0,1,.81,1.68h0Zm4.58-4.68h3.63a1.2,1.2,0,0,0,1-.3h0a1.13,1.13,0,0,0,.24-.74h0a2.05,2.05,0,0,0-.17-.8h0a2.52,2.52,0,0,0-.46-.69h0a2.24,2.24,0,0,0-.68-.47h0a1.85,1.85,0,0,0-.84-.19h0a2.45,2.45,0,0,0-.87.17h0a2.26,2.26,0,0,0-.83.56h0a3.51,3.51,0,0,0-.64,1h0a4.83,4.83,0,0,0-.34,1.46Zm6.34.86H54.64a4.38,4.38,0,0,0,.93,2.87h0a2.92,2.92,0,0,0,2.31,1h0a3,3,0,0,0,1.6-.4h0a5,5,0,0,0,1.18-1h0l.47.37h0a4,4,0,0,1-1.48,1.71h0a4.24,4.24,0,0,1-2.36.63h0a4.61,4.61,0,0,1-1.82-.34h0a3.66,3.66,0,0,1-1.4-1h0a4.4,4.4,0,0,1-.9-1.57h0a6.27,6.27,0,0,1-.32-2.06h0a6,6,0,0,1,.35-2.08h0a5,5,0,0,1,1-1.62h0a4.42,4.42,0,0,1,1.47-1.07h0a4.22,4.22,0,0,1,1.77-.37h0a4.2,4.2,0,0,1,1.47.25h0a3.47,3.47,0,0,1,1.18.76h0a3.69,3.69,0,0,1,.8,1.23h0a4.28,4.28,0,0,1,.28,1.61h0a3.74,3.74,0,0,1,0,.61h0a4.4,4.4,0,0,1-.1.5Zm7.34,2.74V150h0q-.51.14-1,.3h0l-.82.27h0a5.24,5.24,0,0,0-1,.53h0a3,3,0,0,0-.6.53h0a1.3,1.3,0,0,0-.25.52h0a2.16,2.16,0,0,0-.06.47h0a1.69,1.69,0,0,0,.11.65h0a1.75,1.75,0,0,0,.26.42h0a1.66,1.66,0,0,0,1.23.46h0a1.63,1.63,0,0,0,.45-.06h0a1.63,1.63,0,0,0,.46-.17h0a4.59,4.59,0,0,0,.54-.34h0l.71-.51Zm3.2.8.4.44h0a1.86,1.86,0,0,1-.73.85h0a1.87,1.87,0,0,1-.88.2h0A2,2,0,0,1,69,155h0a1.87,1.87,0,0,1-.62-1.09h0q-.4.39-.75.69h0a3.43,3.43,0,0,1-.67.5h0a2.45,2.45,0,0,1-.69.3h0a2.87,2.87,0,0,1-.8.1h0a3.47,3.47,0,0,1-1-.15h0a2.24,2.24,0,0,1-.85-.49h0a2.18,2.18,0,0,1-.59-.78h0a2.68,2.68,0,0,1-.21-1.09h0a2.28,2.28,0,0,1,.14-.82h0a2,2,0,0,1,.5-.76h0a4.4,4.4,0,0,1,1-.74h0a9.7,9.7,0,0,1,1.67-.73h0c.3-.11.65-.22,1-.33h0l1.18-.34h0v-.53h0a5.62,5.62,0,0,0-.1-1.19h0a1.93,1.93,0,0,0-.32-.75h0a1.44,1.44,0,0,0-.57-.37h0a3.1,3.1,0,0,0-.86-.11h0l-.47,0h0a4,4,0,0,0-.54.07h0l-.4,1.4h0c-.19.63-.55.95-1.09.95h0a.88.88,0,0,1-.65-.23h0a1,1,0,0,1-.29-.62h0a3,3,0,0,1,1.33-1.83h0a4.62,4.62,0,0,1,2.57-.68h0a3,3,0,0,1,2.33.8h0a3.85,3.85,0,0,1,.76,2.71h0v4.27h0c0,.78.22,1.17.67,1.17h0a.8.8,0,0,0,.41-.1h0a1.65,1.65,0,0,0,.32-.23h0Zm8.22-.67v-5.67h0a4.66,4.66,0,0,0-1.21-.79h0a2.55,2.55,0,0,0-1-.23h0a2.37,2.37,0,0,0-1.05.23h0a2.49,2.49,0,0,0-.89.74h0a4,4,0,0,0-.6,1.22h0a6.43,6.43,0,0,0-.21,1.76h0a6.66,6.66,0,0,0,.2,1.72h0a3.68,3.68,0,0,0,.58,1.21h0a2.31,2.31,0,0,0,.87.7h0a2.52,2.52,0,0,0,1.1.23h0a2.51,2.51,0,0,0,1.17-.26h0a4.19,4.19,0,0,0,1.08-.86Zm1.7,1,1.63.26v.71l-3.13.2L79.85,154h0a3.68,3.68,0,0,1-1.17,1.07h0a3.23,3.23,0,0,1-1.62.37h0a3.92,3.92,0,0,1-1.66-.35h0a3.87,3.87,0,0,1-1.3-1h0a4.74,4.74,0,0,1-.82-1.56h0a6.75,6.75,0,0,1-.29-2h0a6.53,6.53,0,0,1,.32-2.08h0a5,5,0,0,1,.89-1.62h0a3.89,3.89,0,0,1,1.35-1.07h0a3.84,3.84,0,0,1,1.69-.37h0a3.31,3.31,0,0,1,1.36.28h0a3.65,3.65,0,0,1,1.25,1h0v-4.25l-1.7-.2v-.7l3.14-.9.29.16-.09,2.83Zm16.45-11.3-3.39,7v.63h0v1.6h0c0,.63,0,1.31,0,2h0l2,.23v.81h-6v-.81l2-.23h0c0-.71,0-1.39,0-2h0v-1.6h0V150l-3.54-7.15-1.57-.19v-.81H93.2v.81l-1.9.21,2.77,6,2.85-6-1.8-.24v-.81h4.56v.81Zm5.66,3.39h0a2.27,2.27,0,0,0-2,1.07h0a5.76,5.76,0,0,0-.69,3.11h0a5.59,5.59,0,0,0,.69,3.06h0a2.27,2.27,0,0,0,2,1h0a2.24,2.24,0,0,0,2-1h0a5.5,5.5,0,0,0,.7-3.06h0a5.66,5.66,0,0,0-.7-3.11h0A2.25,2.25,0,0,0,103.6,146.3Zm0-.91h0a4.55,4.55,0,0,1,1.7.33h0a4.08,4.08,0,0,1,1.47,1h0a5.07,5.07,0,0,1,1,1.6h0a5.62,5.62,0,0,1,.4,2.18h0a5.52,5.52,0,0,1-.39,2.16h0a4.49,4.49,0,0,1-1,1.57h0a4.45,4.45,0,0,1-1.47,1h0a4.74,4.74,0,0,1-1.7.31h0a4.68,4.68,0,0,1-1.69-.31h0a4.45,4.45,0,0,1-1.47-1h0a4.61,4.61,0,0,1-1-1.57h0a5.51,5.51,0,0,1-.4-2.16h0a5.62,5.62,0,0,1,.4-2.18h0a4.77,4.77,0,0,1,1-1.6h0a4.13,4.13,0,0,1,1.46-1h0A4.5,4.5,0,0,1,103.6,145.39Zm14.9,8.78,1.37.3v.71l-2.76.2-.23-1.77h0a5,5,0,0,1-1.71,1.43h0a4.12,4.12,0,0,1-1.81.44h0a3.21,3.21,0,0,1-1.1-.18h0a2,2,0,0,1-.83-.62h0a2.84,2.84,0,0,1-.5-1.11h0a7.25,7.25,0,0,1-.17-1.68h0l.06-5-1.43-.3v-.7l2.94-.27.2.2-.1,2.79v3.1h0a3.16,3.16,0,0,0,.4,1.86h0a1.4,1.4,0,0,0,1.2.53h0a4.12,4.12,0,0,0,2.79-1.3h0l.06-5.91-1.41-.3v-.7l2.89-.27.2.2-.06,2.79Zm5.84-8.58.21,2.34h0a5,5,0,0,1,1.28-1.87h0a2.42,2.42,0,0,1,1.6-.67h0a1.64,1.64,0,0,1,.84.23h0a1,1,0,0,1,.51.74h0a1,1,0,0,1-.34.8h0a1.28,1.28,0,0,1-.85.28h0a1.61,1.61,0,0,1-1.14-.5h0l-.15-.14h0a4.36,4.36,0,0,0-1,1.1h0a6.32,6.32,0,0,0-.7,1.52h0V151h0c0,.44,0,.95,0,1.54h0c0,.59,0,1.14,0,1.64h0l1.64.3v.71h-4.84v-.71l1.44-.26h0q0-.77,0-1.65h0c0-.59,0-1.11,0-1.57h0v-1h0c0-.55,0-1,0-1.36h0q0-.54,0-1.14h0l-1.58-.18v-.7l2.78-1.21Zm14,8.65h1.21a4.76,4.76,0,0,0,2.9-.7h0a2.35,2.35,0,0,0,.93-2h0a2.44,2.44,0,0,0-.93-2.09h0a5.07,5.07,0,0,0-3-.7h-1.13v2.84h0c0,.9,0,1.79,0,2.66Zm1.41-11.48h-1.41c0,.85,0,1.69,0,2.53h0v2.54h1.06a4.41,4.41,0,0,0,2.63-.62h0a2.31,2.31,0,0,0,.83-2h0a2.19,2.19,0,0,0-.77-1.91h0a3.92,3.92,0,0,0-2.3-.56Zm-5.2-.92h5.79a6.55,6.55,0,0,1,1.85.23h0a4.13,4.13,0,0,1,1.36.68h0a2.81,2.81,0,0,1,.85,1h0a3,3,0,0,1,.29,1.31h0A3,3,0,0,1,144,147h0a3.89,3.89,0,0,1-2.33,1.21h0a6.62,6.62,0,0,1,1.68.44h0a4.43,4.43,0,0,1,1.17.74h0a2.81,2.81,0,0,1,.65,1h0a3.11,3.11,0,0,1,.2,1.14h0a3.29,3.29,0,0,1-.28,1.34h0a3,3,0,0,1-.93,1.17h0a5.53,5.53,0,0,1-1.65.83h0a8.56,8.56,0,0,1-2.48.31h-5.45v-.81l1.84-.23h0c0-.83,0-1.68,0-2.54h0V149h0v-1h0v-2.59h0c0-.85,0-1.71,0-2.58h0l-1.84-.21Zm14.73,1.41h0a1.36,1.36,0,0,1-1-.36h0a1.24,1.24,0,0,1-.38-.94h0a1.21,1.21,0,0,1,.38-.93h0a1.4,1.4,0,0,1,1-.35h0a1.32,1.32,0,0,1,1,.35h0a1.18,1.18,0,0,1,.39.93h0a1.21,1.21,0,0,1-.39.94h0A1.29,1.29,0,0,1,149.26,143.25Zm.9,10.93,1.38.29v.71h-4.63v-.71l1.49-.29h0c0-.5,0-1.05,0-1.63h0c0-.6,0-1.12,0-1.56h0v-1h0c0-.54,0-1,0-1.37h0q0-.54,0-1.14h0l-1.58-.18v-.7l3.08-1.21.3.2-.08,2.71V151h0c0,.44,0,1,0,1.56h0c0,.58,0,1.13,0,1.63Zm5.81-6.5v5.55h0a4.44,4.44,0,0,0,1.22.85h0a2.77,2.77,0,0,0,1.15.26h0a2.31,2.31,0,0,0,1-.23h0a2.32,2.32,0,0,0,.82-.72h0a3.35,3.35,0,0,0,.57-1.2h0a5.59,5.59,0,0,0,.22-1.67h0a5.26,5.26,0,0,0-.7-3h0a2.14,2.14,0,0,0-1.84-1h0a2.82,2.82,0,0,0-1.05.23h0a5.84,5.84,0,0,0-1.42.92Zm-.07-4.05v3.3h0a4.85,4.85,0,0,1,1.47-1.17h0a3.62,3.62,0,0,1,1.61-.37h0a3.29,3.29,0,0,1,1.49.34h0a3.28,3.28,0,0,1,1.19,1h0a4.77,4.77,0,0,1,.82,1.57h0a6.63,6.63,0,0,1,.3,2.07h0a6.63,6.63,0,0,1-.32,2.11h0a4.62,4.62,0,0,1-.85,1.62h0a4,4,0,0,1-1.3,1h0a3.58,3.58,0,0,1-1.63.37h0a3.54,3.54,0,0,1-1.35-.27h0a3.75,3.75,0,0,1-1.28-1h-.16l-.12,1.15-3-.2v-.71l1.5-.29h0c0-.5,0-1.05,0-1.63h0c0-.6,0-1.12,0-1.56h0v-8.55l-1.64-.2v-.7l3-.9.29.16Zm11.45,10.55,1.57.29v.71H164v-.71l1.56-.29h0q0-.81,0-1.59h0c0-.53,0-1.07,0-1.6h0v-8.55l-1.64-.2v-.7l3.12-.9.27.16-.07,2.83V151h0v1.6h0c0,.53,0,1.06,0,1.59Zm4.85-4.69h3.64a1.18,1.18,0,0,0,.95-.3h0a1.13,1.13,0,0,0,.24-.74h0a1.89,1.89,0,0,0-.17-.8h0a2.17,2.17,0,0,0-.47-.69h0a2,2,0,0,0-.67-.47h0a1.86,1.86,0,0,0-.85-.19h0a2.53,2.53,0,0,0-.87.17h0a2.31,2.31,0,0,0-.82.56h0a3.74,3.74,0,0,0-.64,1h0a4.55,4.55,0,0,0-.34,1.46Zm6.34.86h-6.38a4.43,4.43,0,0,0,.91,2.87h0a3,3,0,0,0,2.32,1h0a3,3,0,0,0,1.6-.4h0a4.56,4.56,0,0,0,1.17-1h0l.48.37h0a3.92,3.92,0,0,1-1.48,1.71h0a4.21,4.21,0,0,1-2.35.63h0a4.71,4.71,0,0,1-1.84-.34h0a3.82,3.82,0,0,1-1.4-1h0a4.72,4.72,0,0,1-.9-1.57h0a6.28,6.28,0,0,1-.31-2.06h0a5.79,5.79,0,0,1,.36-2.08h0a4.63,4.63,0,0,1,1-1.62h0a4.63,4.63,0,0,1,1.47-1.07h0a4.3,4.3,0,0,1,1.78-.37h0a4.2,4.2,0,0,1,1.47.25h0a3.38,3.38,0,0,1,1.18.76h0a3.54,3.54,0,0,1,.8,1.23h0a4.28,4.28,0,0,1,.29,1.61h0a3.67,3.67,0,0,1-.05.61h0a2.94,2.94,0,0,1-.1.5Zm15.42-7.5h-3.05c0,.86,0,1.71,0,2.57h0V148h0v1h0v2.59h0c0,.84,0,1.7,0,2.56h0l2,.23v.81h-6v-.81l2-.23h0c0-.83.05-1.68.05-2.54h0V149h0v-1h0v-2.6h0c0-.86,0-1.72-.05-2.58h-3l-.44,2.55h-1.15l.15-3.56h11l.14,3.56h-1.14Zm12,11.33,1.4.29v.71h-4.64v-.71l1.48-.29h0c0-.49,0-1,0-1.61h0c0-.59,0-1.11,0-1.58h0v-1.75h0a3.39,3.39,0,0,0-.39-1.9h0a1.39,1.39,0,0,0-1.25-.54h0a3.24,3.24,0,0,0-1.39.31h0a6.72,6.72,0,0,0-1.45,1h0V151h0c0,.44,0,1,0,1.56h0c0,.58,0,1.13,0,1.63h0l1.39.29v.71h-4.64v-.71l1.5-.29h0c0-.5,0-1.05,0-1.63h0c0-.6,0-1.12,0-1.56h0v-8.55l-1.64-.2v-.7l3.05-.9.29.16-.09,2.83v3.61h0a6.15,6.15,0,0,1,1.71-1.35h0a4.21,4.21,0,0,1,1.94-.5h0a2.23,2.23,0,0,1,1.93.85h0a4.91,4.91,0,0,1,.63,2.84h0V151h0c0,.47,0,1,0,1.57h0q0,.87,0,1.62Zm5.79-8.59.23,2.34h0a4.91,4.91,0,0,1,1.28-1.87h0a2.38,2.38,0,0,1,1.58-.67h0a1.68,1.68,0,0,1,.86.23h0a1,1,0,0,1,.5.74h0a1,1,0,0,1-.33.8h0a1.32,1.32,0,0,1-.87.28h0a1.6,1.6,0,0,1-1.13-.5h0l-.14-.14h0a3.89,3.89,0,0,0-1,1.1h0a6,6,0,0,0-.7,1.52h0V151h0c0,.44,0,.95,0,1.54h0c0,.59,0,1.14,0,1.64h0l1.64.3v.71h-4.83v-.71l1.44-.26h0q0-.77,0-1.65h0V151h0v-1h0c0-.55,0-1,0-1.36h0c0-.36,0-.74,0-1.14h0l-1.57-.18v-.7l2.77-1.21Zm9.93.71h0a2.27,2.27,0,0,0-2,1.07h0a5.76,5.76,0,0,0-.69,3.11h0a5.59,5.59,0,0,0,.69,3.06h0a2.27,2.27,0,0,0,2,1h0a2.24,2.24,0,0,0,2-1h0a5.5,5.5,0,0,0,.7-3.06h0a5.66,5.66,0,0,0-.7-3.11h0A2.25,2.25,0,0,0,221.67,146.3Zm0-.91h0a4.55,4.55,0,0,1,1.7.33h0a4.08,4.08,0,0,1,1.47,1h0a5.07,5.07,0,0,1,1,1.6h0a5.62,5.62,0,0,1,.4,2.18h0a5.52,5.52,0,0,1-.39,2.16h0a4.49,4.49,0,0,1-1,1.57h0a4.45,4.45,0,0,1-1.47,1h0a4.74,4.74,0,0,1-1.7.31h0a4.68,4.68,0,0,1-1.69-.31h0a4.45,4.45,0,0,1-1.47-1h0a4.61,4.61,0,0,1-1-1.57h0a5.51,5.51,0,0,1-.4-2.16h0a5.62,5.62,0,0,1,.4-2.18h0a4.75,4.75,0,0,1,1-1.6h0a4.26,4.26,0,0,1,1.47-1h0A4.5,4.5,0,0,1,221.67,145.39Zm14.9,8.78,1.37.3v.71l-2.76.2-.23-1.77h0a5,5,0,0,1-1.71,1.43h0a4.12,4.12,0,0,1-1.81.44h0a3.21,3.21,0,0,1-1.1-.18h0a2,2,0,0,1-.83-.62h0a2.85,2.85,0,0,1-.51-1.11h0a7.3,7.3,0,0,1-.16-1.68h0l.06-5-1.43-.3v-.7l2.94-.27.2.2-.1,2.79v3.1h0a3.25,3.25,0,0,0,.39,1.86h0a1.42,1.42,0,0,0,1.21.53h0a4.12,4.12,0,0,0,2.79-1.3h0l.06-5.91-1.41-.3v-.7l2.89-.27.2.2-.06,2.79Zm6.61-3h0a1.77,1.77,0,0,0,1.49-.7h0a2.85,2.85,0,0,0,.54-1.81h0a2.88,2.88,0,0,0-.49-1.75h0a1.7,1.7,0,0,0-1.44-.67h0a1.75,1.75,0,0,0-1.49.7h0a2.85,2.85,0,0,0-.52,1.78h0a2.92,2.92,0,0,0,.49,1.77h0A1.65,1.65,0,0,0,243.18,151.13Zm1.58,4.08h-2.23a4.87,4.87,0,0,1-1-.1h0a4.19,4.19,0,0,0-.54.77h0a1.88,1.88,0,0,0-.2.86h0a1.39,1.39,0,0,0,.73,1.31h0a3.76,3.76,0,0,0,1.87.41h0a4.42,4.42,0,0,0,2.5-.58h0a1.66,1.66,0,0,0,.85-1.4h0a1.27,1.27,0,0,0-.09-.47h0a.91.91,0,0,0-.31-.4h0a2,2,0,0,0-.62-.3h0a3.64,3.64,0,0,0-1-.1Zm3.59-9.57v1.26h-1.94a3.35,3.35,0,0,1,.44,1.75h0a3.27,3.27,0,0,1-.28,1.4h0a3,3,0,0,1-.76,1h0a3.52,3.52,0,0,1-1.14.64h0a4.64,4.64,0,0,1-1.44.21h0a6,6,0,0,1-.75,0h0a5.47,5.47,0,0,1-.7-.16h0a2,2,0,0,0-.27.47h0a1.32,1.32,0,0,0-.1.53h0a.85.85,0,0,0,.33.71h0a2,2,0,0,0,1.22.27H245a4.13,4.13,0,0,1,2.42.57h0a1.9,1.9,0,0,1,.8,1.64h0a2.85,2.85,0,0,1-.31,1.29h0a3.45,3.45,0,0,1-.94,1.1h0a5.15,5.15,0,0,1-1.56.75h0a7.09,7.09,0,0,1-2.18.3h0a7.71,7.71,0,0,1-1.84-.19h0a3.89,3.89,0,0,1-1.28-.48h0a2.26,2.26,0,0,1-.77-.73h0a1.77,1.77,0,0,1-.24-.88h0c0-.83.61-1.55,1.85-2.17h0a1.91,1.91,0,0,1-.83-.67h0a1.68,1.68,0,0,1-.24-.87h0a1.69,1.69,0,0,1,.33-1h0a4.05,4.05,0,0,1,.94-.89h0a3,3,0,0,1-1.11-1.1h0a3.22,3.22,0,0,1-.43-1.73h0a3.24,3.24,0,0,1,.28-1.38h0a3.17,3.17,0,0,1,.76-1h0a3.52,3.52,0,0,1,1.14-.64h0a4.73,4.73,0,0,1,1.44-.21h0a3.86,3.86,0,0,1,2.55.81h0l2.24-.76Zm10.25,8.54,1.4.29v.71h-4.62v-.71l1.47-.29h0c0-.49,0-1,0-1.61h0c0-.59,0-1.11,0-1.58h0v-1.75h0a3.49,3.49,0,0,0-.38-1.9h0a1.42,1.42,0,0,0-1.26-.54h0a3.15,3.15,0,0,0-1.37.31h0a6.78,6.78,0,0,0-1.47,1h0V151h0c0,.44,0,1,0,1.56h0c0,.58,0,1.13,0,1.63h0l1.38.29v.71h-4.63v-.71l1.49-.29h0c0-.5,0-1.05,0-1.63h0c0-.6,0-1.12,0-1.56h0v-8.55l-1.64-.2v-.7l3-.9.28.16-.08,2.83v3.61h0a5.91,5.91,0,0,1,1.72-1.35h0a4.11,4.11,0,0,1,1.93-.5h0a2.23,2.23,0,0,1,1.92.85h0a4.82,4.82,0,0,1,.64,2.84h0V151h0v1.57h0q0,.87,0,1.62Z" transform="translate(-10.04 -139.8)"/></g><g id="_4a434b18-c9e1-47f3-9171-fcb0c9f5d701" data-name=" 4a434b18-c9e1-47f3-9171-fcb0c9f5d701"><path class="cls-2" d="M25.22,153.44A2.34,2.34,0,0,0,27,150.86v-9.77c0-1.05-.67-1.38-1.77-1.27l-2.94.52a2,2,0,0,0-1.58,1.88v12.24l1.27-.27v3.35l1.26-1.19,1.25,1.19v-3.95Z" transform="translate(-10.04 -139.8)"/><path class="cls-3" d="M26,153.52a3.22,3.22,0,0,0,2.83-3.45v-8.78a.58.58,0,0,0-.56-.58h-.06a.57.57,0,0,0-.63.58V151C27.61,153.2,26,153.52,26,153.52Zm-11.29,0s-1.58-.32-1.58-2.51v-9.72a.63.63,0,0,0-1.25,0v8.83A3.22,3.22,0,0,0,14.75,153.52Z" transform="translate(-10.04 -139.8)"/><path class="cls-4" d="M13.64,153.84c-1.72-.32-2.35-2.05-2.35-3.63v-7.05a.63.63,0,1,0-1.25-.07v7.5a4.35,4.35,0,0,0,3.5,4.6l6.85.71.95-.1V155l-.95.2Z" transform="translate(-10.04 -139.8)"/><path class="cls-5" d="M15.57,153.44l4.51,1V142.22a2,2,0,0,0-1.58-1.88l-2.92-.52c-1.11-.11-1.77.22-1.77,1.27v9.77A2.32,2.32,0,0,0,15.57,153.44Zm14.55-10.91a.61.61,0,0,0-.62.6v7.08c0,1.58-.63,3.31-2.35,3.63l-2,.41v1.16l2.15-.22a4.35,4.35,0,0,0,3.5-4.6v-7.43a.62.62,0,0,0-.58-.63Z" transform="translate(-10.04 -139.8)"/></g></svg>