<svg version="1.2" xmlns="http://www.w3.org/2000/svg" viewBox="0 0 106 90" width="106" height="90">
	<title>logo-svg</title>
	<defs>
		<linearGradient id="g1" x1="53.6" y1="12.8" x2="82.5" y2="50.8" gradientUnits="userSpaceOnUse">
			<stop offset="0" stop-color="#968abf"/>
			<stop offset="1" stop-color="#e4a8aa"/>
		</linearGradient>
		<linearGradient id="g2" x1="4.5" y1="15.8" x2="82.5" y2="43.3" gradientUnits="userSpaceOnUse">
			<stop offset="0" stop-color="#968abf"/>
			<stop offset="1" stop-color="#e4a8aa"/>
		</linearGradient>
		<linearGradient id="g3" x1="-4" y1="35.6" x2="47.9" y2="64.2" gradientUnits="userSpaceOnUse">
			<stop offset="0" stop-color="#968abf"/>
			<stop offset="1" stop-color="#e4a8aa"/>
		</linearGradient>
		<linearGradient id="g4" x1="11.3" y1="16.7" x2="89.3" y2="50.2" gradientUnits="userSpaceOnUse">
			<stop offset="0" stop-color="#968abf"/>
			<stop offset="1" stop-color="#e4a8aa"/>
		</linearGradient>
	</defs>
	<style>
		.s0 { fill: url(#g1) } 
		.s1 { fill: url(#g2) } 
		.s2 { fill: url(#g3) } 
		.s3 { fill: url(#g4) } 
	</style>
	<filter id="f0">
		<feFlood flood-color="#ffffff" flood-opacity="1" />
		<feBlend mode="normal" in2="SourceGraphic"/>
		<feComposite in2="SourceAlpha" operator="in" />
	</filter>
	<g id="_4a434b18-c9e1-47f3-9171-fcb0c9f5d701" filter="url(#f0)">
		<path id="Layer" class="s0" d="m77 69.2c5.8-1.2 9-6 9-13v-49.6c0-5.4-3.4-7-9-6.5l-14.9 2.6c0 0-8 1.6-8 9.6v62.1l6.5-1.4v17l6.3-6 6.4 6v-20z"/>
		<path id="Layer" class="s1" d="m81.2 69.6c15.9-3.2 14.4-17.5 14.4-17.5v-44.5q0-0.6-0.3-1.2-0.2-0.6-0.7-1-0.4-0.4-1-0.6-0.6-0.2-1.2-0.1c-1.6 0-3.2 0.8-3.2 2.9v49.3c0 11.1-8 12.7-8 12.7zm-57.3 0c0 0-8-1.6-8-12.7v-49.3c0-2.1-1.7-2.9-3.2-2.9q-0.6-0.1-1.2 0.1-0.6 0.2-1 0.6-0.5 0.4-0.7 1-0.3 0.6-0.2 1.2v44.5c0 0-1.6 14.3 14.3 17.5z"/>
		<path id="Layer" class="s2" d="m18.3 71.2c-8.7-1.6-11.9-10.4-11.9-18.3v-35.8c0-0.9-0.3-1.8-0.9-2.4-0.6-0.6-1.4-1-2.3-1-0.9 0-1.7 0.4-2.3 1-0.6 0.6-0.9 1.5-0.9 2.4v37.6c0 3.4 0 19.5 17.8 23.4l34.8 3.6 4.7-0.5v-4l-4.7 1z"/>
		<path id="Layer" class="s3" d="m28.1 69.2l22.9 5.2v-62.1c0-8-8-9.6-8-9.6l-14.9-2.6c-5.6-0.6-9 1.1-9 6.5v49.5c0 7.2 3.2 11.9 9 13.1zm73.8-55.3q-0.6 0-1.2 0.2-0.6 0.2-1.1 0.7-0.4 0.4-0.7 1-0.2 0.6-0.2 1.3v35.8c0 8-3.1 16.7-11.9 18.3l-10.4 2.1v5.9l10.9-1.1c17.8-3.9 17.8-20 17.8-23.4v-37.6q0-0.7-0.2-1.3-0.2-0.6-0.7-1-0.5-0.5-1.1-0.7-0.5-0.2-1.2-0.2z"/>
	</g>
</svg>